# File created by Blade
# Date/Time:  Wed Jan 21 18:40:08 2015
# Frame Rate: 120.000 fps
#------------------------------------------------------
:FULLY-SPECIFIED
:DEGREES
4146
root 1.754029 28.488722 -11.005632 86.596171 -13.577875 6.365459
RightUpLeg -107.003477 -31.502887 2.805214
RightLeg 4.275905 -0.000000 -0.000000
RightFoot 2.944898 -3.641523 41.681431
RightToeBase 20.153878 -0.000000 -0.000000
LeftUpLeg -95.547756 19.604652 -25.984360
LeftLeg -5.875247 -0.000000 0.000000
LeftFoot 7.187360 7.897614 -21.197434
LeftToeBase 9.291466 -0.000000 -0.000000
Spine -36.435587 -2.249830 4.283183
RightShoulder -10.571805 21.004346 -29.924628
RightArm -1.954345 -19.667747 87.609652
RightForeArm 8.792354 0.000000 30.209288
RightHand 11.087837 -0.000000 -11.120543
RightHandThumb1 -24.326973 -0.000000 -32.862282
LeftShoulder 0.663567 -6.618892 27.081238
LeftArm 35.713670 34.165814 -79.087174
LeftForeArm 13.068744 -0.000000 29.987442
LeftHand -15.563245 -0.000000 1.516737
LeftHandThumb1 -26.253704 0.000000 33.147579
Head -30.195966 7.125923 15.116751
4147
root 1.756269 28.483013 -11.029065 86.804127 -13.793657 6.440350
RightUpLeg -107.353448 -31.558269 2.716784
RightLeg 4.305728 -0.000000 -0.000000
RightFoot 2.988135 -3.676876 41.714371
RightToeBase 20.217128 -0.000000 -0.000000
LeftUpLeg -95.717895 19.455078 -26.220418
LeftLeg -5.916269 -0.000000 0.000000
LeftFoot 7.214080 7.941595 -21.127884
LeftToeBase 9.324646 -0.000000 -0.000000
Spine -36.364616 -2.227239 4.264175
RightShoulder -10.599266 21.089306 -29.981008
RightArm -1.881954 -19.588320 87.406451
RightForeArm 8.763226 -0.000000 30.266194
RightHand 10.864749 -0.000000 -11.163460
RightHandThumb1 -24.326973 -0.000000 -32.862282
LeftShoulder 0.773244 -6.709842 27.108315
LeftArm 35.787529 34.007673 -79.031153
LeftForeArm 13.092987 -0.000000 30.014456
LeftHand -15.448901 -0.000000 1.410568
LeftHandThumb1 -26.253704 0.000000 33.147579
Head -30.298877 7.228707 14.987098
4148
root 1.753260 28.476390 -11.054481 86.993389 -13.911051 6.445364
RightUpLeg -107.632844 -31.541749 2.688729
RightLeg 4.324581 -0.000000 -0.000000
RightFoot 3.013958 -3.725870 41.735398
RightToeBase 20.207808 -0.000000 -0.000000
LeftUpLeg -95.920310 19.381850 -26.356264
LeftLeg -5.913876 -0.000000 0.000000
LeftFoot 7.203848 7.980543 -21.123833
LeftToeBase 9.303691 -0.000000 -0.000000
Spine -36.247797 -2.188157 4.381360
RightShoulder -10.548294 21.174689 -30.016849
RightArm -1.776025 -19.458906 87.185831
RightForeArm 8.700124 -0.000000 30.297962
RightHand 10.918082 0.000000 -11.150432
RightHandThumb1 -24.326973 -0.000000 -32.862282
LeftShoulder 0.796572 -6.778659 27.121785
LeftArm 35.919475 33.899971 -78.915348
LeftForeArm 13.073834 0.000000 30.007186
LeftHand -15.585965 0.000000 1.478150
LeftHandThumb1 -26.253704 0.000000 33.147579
Head -30.405626 7.374489 14.846415
4149
root 1.747438 28.471112 -11.077506 87.158176 -14.004254 6.432764
RightUpLeg -107.862552 -31.505056 2.668303
RightLeg 4.328660 -0.000000 -0.000000
RightFoot 3.031767 -3.765438 41.712810
RightToeBase 20.202722 -0.000000 -0.000000
LeftUpLeg -96.077717 19.345506 -26.433340
LeftLeg -5.947433 -0.000000 0.000000
LeftFoot 7.240069 8.040452 -21.058602
LeftToeBase 9.315672 -0.000000 -0.000000
Spine -36.090266 -2.100957 4.512474
RightShoulder -10.491163 21.398494 -30.087669
RightArm -1.874494 -19.303559 87.040822
RightForeArm 8.644417 -0.000000 30.337713
RightHand 10.983501 0.000000 -11.167332
RightHandThumb1 -24.326973 -0.000000 -32.862282
LeftShoulder 0.816968 -6.731918 27.099644
LeftArm 36.207467 33.764819 -78.705909
LeftForeArm 13.129810 -0.000000 29.968525
LeftHand -15.512920 -0.000000 1.550106
LeftHandThumb1 -26.253704 0.000000 33.147579
Head -30.514925 7.454512 14.691694
4150
root 1.742012 28.466319 -11.102659 87.330514 -14.113309 6.415010
RightUpLeg -108.091202 -31.475570 2.581338
RightLeg 4.363678 -0.000000 -0.000000
RightFoot 3.025800 -3.849399 41.724848
RightToeBase 20.215332 -0.000000 -0.000000
LeftUpLeg -96.263028 19.298547 -26.559666
LeftLeg -5.964084 -0.000000 0.000000
LeftFoot 7.255261 8.094707 -21.017365
LeftToeBase 9.302512 -0.000000 -0.000000
Spine -35.919985 -2.019322 4.638779
RightShoulder -10.448773 21.491810 -30.115025
RightArm -1.799152 -19.178753 86.814526
RightForeArm 8.360680 -0.000000 30.428545
RightHand 10.835348 -0.000000 -11.176962
RightHandThumb1 -24.326973 -0.000000 -32.862282
LeftShoulder 0.862599 -6.819017 27.110031
LeftArm 36.337326 33.665191 -78.565674
LeftForeArm 13.078184 -0.000000 30.014581
LeftHand -15.765509 0.000000 1.513925
LeftHandThumb1 -26.253704 0.000000 33.147579
Head -30.659370 7.620152 14.516779
